<svg width="271" height="172" viewBox="0 0 271 172" fill="none" xmlns="http://www.w3.org/2000/svg">
<path d="M4.42472 68V17.0909H15.1882V59.1257H37.0135V68H4.42472ZM61.1941 68.7457C57.3328 68.7457 53.9935 67.9254 51.1763 66.2848C48.3757 64.6276 46.213 62.3241 44.6884 59.3743C43.1638 56.4079 42.4015 52.9692 42.4015 49.0582C42.4015 45.1141 43.1638 41.6671 44.6884 38.7173C46.213 35.7509 48.3757 33.4474 51.1763 31.8068C53.9935 30.1496 57.3328 29.321 61.1941 29.321C65.0553 29.321 68.3863 30.1496 71.187 31.8068C74.0042 33.4474 76.1751 35.7509 77.6998 38.7173C79.2244 41.6671 79.9867 45.1141 79.9867 49.0582C79.9867 52.9692 79.2244 56.4079 77.6998 59.3743C76.1751 62.3241 74.0042 64.6276 71.187 66.2848C68.3863 67.9254 65.0553 68.7457 61.1941 68.7457ZM61.2438 60.5426C63.0004 60.5426 64.467 60.0455 65.6436 59.0511C66.8203 58.0402 67.7069 56.6648 68.3034 54.9247C68.9166 53.1847 69.2232 51.2043 69.2232 48.9837C69.2232 46.763 68.9166 44.7827 68.3034 43.0426C67.7069 41.3026 66.8203 39.9271 65.6436 38.9162C64.467 37.9053 63.0004 37.3999 61.2438 37.3999C59.4706 37.3999 57.9791 37.9053 56.7694 38.9162C55.5762 39.9271 54.673 41.3026 54.0598 43.0426C53.4632 44.7827 53.165 46.763 53.165 48.9837C53.165 51.2043 53.4632 53.1847 54.0598 54.9247C54.673 56.6648 55.5762 58.0402 56.7694 59.0511C57.9791 60.0455 59.4706 60.5426 61.2438 60.5426ZM104.124 68.7457C100.213 68.7457 96.8487 67.9171 94.0314 66.2599C91.2308 64.5862 89.0764 62.2661 87.5684 59.2997C86.0769 56.3333 85.3311 52.9195 85.3311 49.0582C85.3311 45.1473 86.0852 41.7169 87.5932 38.767C89.1178 35.8007 91.2805 33.4889 94.0811 31.8317C96.8818 30.1579 100.213 29.321 104.074 29.321C107.405 29.321 110.322 29.9259 112.824 31.1357C115.326 32.3454 117.307 34.044 118.765 36.2315C120.223 38.419 121.027 40.9877 121.176 43.9375H111.183C110.902 42.0317 110.156 40.4988 108.946 39.3388C107.753 38.1622 106.187 37.5739 104.248 37.5739C102.607 37.5739 101.174 38.0213 99.9476 38.9162C98.7379 39.7945 97.7933 41.0788 97.1138 42.7692C96.4344 44.4595 96.0946 46.5062 96.0946 48.9091C96.0946 51.3452 96.4261 53.4167 97.089 55.1236C97.7684 56.8305 98.7213 58.1314 99.9476 59.0263C101.174 59.9212 102.607 60.3686 104.248 60.3686C105.458 60.3686 106.543 60.12 107.504 59.6229C108.482 59.1257 109.286 58.4048 109.916 57.4602C110.562 56.4991 110.985 55.3473 111.183 54.005H121.176C121.011 56.9216 120.215 59.4903 118.79 61.7109C117.381 63.915 115.434 65.6385 112.948 66.8814C110.463 68.1243 107.521 68.7457 104.124 68.7457ZM137.551 57.0128L137.576 44.3104H139.118L151.348 29.8182H163.503L147.072 49.0085H144.561L137.551 57.0128ZM127.956 68V17.0909H138.546V68H127.956ZM151.82 68L140.584 51.37L147.644 43.8878L164.224 68H151.82ZM200.467 40.706L190.772 41.3026C190.607 40.474 190.25 39.7282 189.703 39.0653C189.157 38.3859 188.436 37.8473 187.541 37.4496C186.663 37.0353 185.61 36.8281 184.384 36.8281C182.743 36.8281 181.359 37.1761 180.233 37.8722C179.106 38.5516 178.542 39.4631 178.542 40.6065C178.542 41.518 178.907 42.2886 179.636 42.9183C180.365 43.5481 181.616 44.0535 183.39 44.4347L190.3 45.8267C194.012 46.589 196.78 47.8153 198.603 49.5057C200.426 51.196 201.337 53.4167 201.337 56.1676C201.337 58.67 200.6 60.8658 199.125 62.755C197.666 64.6442 195.661 66.1191 193.109 67.1797C190.574 68.2237 187.649 68.7457 184.334 68.7457C179.28 68.7457 175.253 67.6934 172.253 65.5888C169.27 63.4676 167.522 60.584 167.008 56.9382L177.424 56.3913C177.739 57.9325 178.501 59.1091 179.711 59.9212C180.92 60.7166 182.47 61.1143 184.359 61.1143C186.215 61.1143 187.707 60.758 188.833 60.0455C189.977 59.3163 190.557 58.38 190.574 57.2365C190.557 56.2753 190.151 55.4882 189.355 54.875C188.56 54.2453 187.334 53.7647 185.676 53.4332L179.064 52.1158C175.336 51.37 172.56 50.0774 170.737 48.2379C168.931 46.3984 168.027 44.0535 168.027 41.2031C168.027 38.7505 168.69 36.6375 170.016 34.8643C171.358 33.0911 173.239 31.724 175.659 30.7628C178.095 29.8016 180.945 29.321 184.21 29.321C189.032 29.321 192.827 30.3402 195.595 32.3785C198.379 34.4169 200.003 37.1927 200.467 40.706ZM239.817 68.7457C236.304 68.7457 233.271 68.116 230.719 66.8565C228.167 65.5971 226.203 63.8902 224.828 61.7358C223.469 59.5649 222.789 57.1454 222.789 54.4773C222.789 52.4886 223.187 50.7237 223.983 49.1825C224.778 47.6413 225.888 46.2244 227.314 44.9318C228.739 43.6226 230.396 42.3217 232.285 41.0291L242.154 34.5412C243.43 33.7292 244.366 32.8757 244.963 31.9808C245.559 31.0694 245.858 30.0833 245.858 29.0227C245.858 28.0118 245.452 27.0755 244.64 26.2138C243.828 25.352 242.676 24.9295 241.184 24.946C240.19 24.946 239.328 25.1697 238.599 25.6172C237.87 26.0481 237.298 26.6198 236.884 27.3324C236.486 28.0284 236.287 28.8073 236.287 29.669C236.287 30.7296 236.586 31.8068 237.182 32.9006C237.779 33.9943 238.574 35.1544 239.569 36.3807C240.563 37.5904 241.648 38.8996 242.825 40.3082L266.962 68H255.925L235.79 45.5781C234.464 44.0701 233.139 42.4957 231.813 40.8551C230.504 39.1979 229.41 37.4413 228.532 35.5852C227.653 33.7126 227.214 31.6825 227.214 29.495C227.214 27.0258 227.786 24.8052 228.929 22.8331C230.089 20.861 231.713 19.3033 233.801 18.1598C235.89 16.9998 238.326 16.4197 241.11 16.4197C243.828 16.4197 246.172 16.9749 248.145 18.0852C250.133 19.179 251.658 20.6373 252.718 22.4602C253.796 24.2666 254.334 26.2552 254.334 28.4261C254.334 30.8291 253.738 33.0083 252.544 34.9638C251.368 36.9027 249.711 38.6428 247.573 40.1839L237.182 47.6662C235.774 48.6937 234.73 49.746 234.05 50.8232C233.387 51.8838 233.056 52.9029 233.056 53.8807C233.056 55.0904 233.354 56.1759 233.951 57.1371C234.547 58.0982 235.392 58.8606 236.486 59.424C237.58 59.9709 238.864 60.2443 240.339 60.2443C242.129 60.2443 243.894 59.8383 245.634 59.0263C247.391 58.1977 248.981 57.0294 250.407 55.5213C251.848 53.9967 253 52.1903 253.862 50.1023C254.724 48.0142 255.154 45.7024 255.154 43.1669H263.929C263.929 46.2824 263.59 49.0914 262.91 51.5938C262.231 54.0795 261.286 56.2505 260.076 58.1065C258.867 59.946 257.483 61.4541 255.925 62.6307C255.428 62.9455 254.947 63.2438 254.483 63.5256C254.019 63.8073 253.539 64.1056 253.042 64.4205C251.152 65.9451 249.039 67.0471 246.703 67.7266C244.383 68.406 242.087 68.7457 239.817 68.7457Z" fill="white"/>
<path d="M211.441 107.461H197.442C197.187 105.65 196.665 104.041 195.876 102.635C195.088 101.207 194.076 99.9929 192.84 98.9915C191.604 97.9901 190.177 97.223 188.558 96.6903C186.96 96.1577 185.223 95.8913 183.348 95.8913C179.96 95.8913 177.009 96.733 174.495 98.4162C171.981 100.078 170.031 102.507 168.646 105.703C167.261 108.878 166.569 112.734 166.569 117.273C166.569 121.939 167.261 125.859 168.646 129.034C170.053 132.209 172.013 134.606 174.527 136.225C177.041 137.844 179.95 138.654 183.252 138.654C185.106 138.654 186.821 138.409 188.398 137.919C189.996 137.429 191.413 136.715 192.648 135.778C193.884 134.819 194.907 133.658 195.717 132.294C196.548 130.93 197.123 129.375 197.442 127.628L211.441 127.692C211.079 130.696 210.173 133.594 208.724 136.385C207.297 139.155 205.369 141.637 202.94 143.832C200.532 146.005 197.656 147.731 194.31 149.009C190.987 150.266 187.226 150.895 183.028 150.895C177.19 150.895 171.97 149.574 167.368 146.932C162.787 144.29 159.165 140.465 156.501 135.458C153.859 130.451 152.538 124.389 152.538 117.273C152.538 110.135 153.881 104.062 156.565 99.0554C159.25 94.0483 162.893 90.2344 167.496 87.6136C172.098 84.9716 177.276 83.6506 183.028 83.6506C186.821 83.6506 190.337 84.1832 193.575 85.2486C196.835 86.3139 199.722 87.8693 202.237 89.9148C204.751 91.9389 206.796 94.4212 208.373 97.3615C209.971 100.302 210.994 103.668 211.441 107.461ZM243.289 150.959C238.325 150.959 234.032 149.904 230.409 147.795C226.809 145.664 224.028 142.702 222.068 138.91C220.108 135.096 219.127 130.675 219.127 125.646C219.127 120.575 220.108 116.143 222.068 112.351C224.028 108.537 226.809 105.575 230.409 103.466C234.032 101.335 238.325 100.27 243.289 100.27C248.254 100.27 252.537 101.335 256.137 103.466C259.76 105.575 262.551 108.537 264.511 112.351C266.471 116.143 267.451 120.575 267.451 125.646C267.451 130.675 266.471 135.096 264.511 138.91C262.551 142.702 259.76 145.664 256.137 147.795C252.537 149.904 248.254 150.959 243.289 150.959ZM243.353 140.412C245.612 140.412 247.498 139.773 249.01 138.494C250.523 137.195 251.663 135.426 252.43 133.189C253.218 130.952 253.613 128.406 253.613 125.55C253.613 122.695 253.218 120.149 252.43 117.912C251.663 115.675 250.523 113.906 249.01 112.607C247.498 111.307 245.612 110.657 243.353 110.657C241.074 110.657 239.156 111.307 237.6 112.607C236.066 113.906 234.905 115.675 234.117 117.912C233.35 120.149 232.966 122.695 232.966 125.55C232.966 128.406 233.35 130.952 234.117 133.189C234.905 135.426 236.066 137.195 237.6 138.494C239.156 139.773 241.074 140.412 243.353 140.412Z" fill="white"/>
</svg>
